<?xml version="1.0" encoding="utf-8"?>
<!-- Generator: Adobe Illustrator 26.3.1, SVG Export Plug-In . SVG Version: 6.00 Build 0)  -->
<svg version="1.1" id="Layer_1" xmlns="http://www.w3.org/2000/svg" xmlns:xlink="http://www.w3.org/1999/xlink" x="0px" y="0px"
	 viewBox="0 0 512 512" style="enable-background:new 0 0 512 512;" xml:space="preserve">
<style type="text/css">
	.st0{fill:#F8CA60;}
</style>
<path class="st0" d="M24,56c0-13.3,10.7-24,24-24h32c13.3,0,24,10.7,24,24v120h16c13.3,0,24,10.7,24,24s-10.7,24-24,24H40
	c-13.3,0-24-10.7-24-24s10.7-24,24-24h16V80h-8C34.7,80,24,69.3,24,56z M86.7,341.2c-6.5-7.4-18.3-6.9-24,1.2l-11.2,15.5
	c-7.7,10.8-22.7,13.3-33.5,5.6S4.7,340.8,12.4,330l11.1-15.6c23.7-33.2,72.3-35.6,99.2-4.9c21.3,24.4,20.8,60.9-1.1,84.7L86.8,432
	H120c13.3,0,24,10.7,24,24s-10.7,24-24,24H32c-9.5,0-18.2-5.6-22-14.4s-2.1-18.9,4.3-25.9l72-78C91.6,355.9,91.7,347.1,86.7,341.2
	L86.7,341.2z M224,64h256c17.7,0,32,14.3,32,32s-14.3,32-32,32H224c-17.7,0-32-14.3-32-32S206.3,64,224,64z M224,224h256
	c17.7,0,32,14.3,32,32s-14.3,32-32,32H224c-17.7,0-32-14.3-32-32S206.3,224,224,224z M224,384h256c17.7,0,32,14.3,32,32
	s-14.3,32-32,32H224c-17.7,0-32-14.3-32-32S206.3,384,224,384z"/>
</svg>
